<svg width="36" height="36" viewBox="0 0 36 36" fill="none" xmlns="http://www.w3.org/2000/svg">
<circle cx="12.5894" cy="12.5" r="2.5" fill="#646464"/>
<circle cx="23.5894" cy="12.5" r="2.5" fill="#646464"/>
<path d="M10.8894 23.6C10.8894 23.6 13.2894 20.4 18.0894 20.4C22.8894 20.4 25.2894 23.6 25.2894 23.6M12.4894 13.2C12.2772 13.2 12.0737 13.1157 11.9237 12.9657C11.7736 12.8157 11.6894 12.6122 11.6894 12.4C11.6894 12.1878 11.7736 11.9843 11.9237 11.8343C12.0737 11.6843 12.2772 11.6 12.4894 11.6C12.7015 11.6 12.905 11.6843 13.055 11.8343C13.2051 11.9843 13.2894 12.1878 13.2894 12.4C13.2894 12.6122 13.2051 12.8157 13.055 12.9657C12.905 13.1157 12.7015 13.2 12.4894 13.2ZM23.6894 13.2C23.4772 13.2 23.2737 13.1157 23.1237 12.9657C22.9736 12.8157 22.8894 12.6122 22.8894 12.4C22.8894 12.1878 22.9736 11.9843 23.1237 11.8343C23.2737 11.6843 23.4772 11.6 23.6894 11.6C23.9015 11.6 24.105 11.6843 24.255 11.8343C24.4051 11.9843 24.4894 12.1878 24.4894 12.4C24.4894 12.6122 24.4051 12.8157 24.255 12.9657C24.105 13.1157 23.9015 13.2 23.6894 13.2ZM18.0894 34C26.9262 34 34.0894 26.8368 34.0894 18C34.0894 9.1632 26.9262 2 18.0894 2C9.25256 2 2.08936 9.1632 2.08936 18C2.08936 26.8368 9.25256 34 18.0894 34Z" stroke="#646464" stroke-width="3" stroke-linecap="round" stroke-linejoin="round"/>
</svg>
